# xmcd
#
# Track frame offsets: 
#        150
#        14586
#        29841
#        46220
#        60871
#        72632
#        87056
#        97948
#        113808
#        127769
#        143515
#        163576
#        179125
#        195556
#        214253
#
# Disc length: 3047 seconds
#
# Revision: 0
# Processed by: cddbd v1.5.2PL0 Copyright (c) Steve Scherf et al.
# Submitted via: ExactAudioCopyFreeDBPlugin 1.0
#
DISCID=ce0be50f
DTITLE=張德蘭 - 張德蘭 - 情歌篇 CD1
DYEAR=2012
DGENRE=Pop
TTITLE0=茫茫路
TTITLE1=情義兩心堅
TTITLE2=情若無花不結果
TTITLE3=留住今日情
TTITLE4=武俠帝女花
TTITLE5=得失都一笑
TTITLE6=逢名逢利
TTITLE7=寂寞是我
TTITLE8=台上台下
TTITLE9=情愛如夢碎
TTITLE10=紫水晶
TTITLE11=相識也是緣份
TTITLE12=軟綿綿的春天
TTITLE13=給我一點信心
TTITLE14=人生於世
EXTD=
EXTT0=
EXTT1=
EXTT2=
EXTT3=
EXTT4=
EXTT5=
EXTT6=
EXTT7=
EXTT8=
EXTT9=
EXTT10=
EXTT11=
EXTT12=
EXTT13=
EXTT14=
PLAYORDER=
